<svg xmlns="http://www.w3.org/2000/svg" viewBox="0 0 201.38 363.56"><defs><style>.cls-1,.cls-2,.cls-3,.cls-5,.cls-6{stroke:#000;}.cls-1,.cls-2,.cls-3,.cls-5,.cls-6,.cls-7{stroke-miterlimit:10;stroke-width:3px;}.cls-2,.cls-4{fill:#f33;}.cls-3{fill:#06f;}.cls-5{fill:#fff;}.cls-6,.cls-7{fill:none;}.cls-7{stroke:#f33;}</style></defs><title>ставлю дизлайк</title><g id="Слой1_Изображение" data-name="Слой1 Изображение"><polyline class="cls-1" points="102.74 256.8 108.07 315.68 112.15 315.68 110.34 259.34 102.74 256.8"/><polyline class="cls-1" points="146.59 256.8 141.26 315.98 137.18 315.98 138.99 259.36 146.59 256.8"/><path class="cls-2" d="M128.78,323.46s-16.3,1.51-25.36,6.79a31.6,31.6,0,0,0,1.15,3.55c3.89,9.85,11.3,13.26,10.4,15.4-1.07,2.5-11-2.84-20.73,1.95a19.11,19.11,0,0,0-10.75,19.1l46.65-1.66Z" transform="translate(-9.31 -8.25)"/><path class="cls-2" d="M102.43,349.43a33.47,33.47,0,0,1,14.32,19.64" transform="translate(-9.31 -8.25)"/><path class="cls-2" d="M139.17,323.46s16.31,1.51,25.36,6.79a27.89,27.89,0,0,1-1.15,3.55c-3.88,9.85-11.3,13.26-10.39,15.4,1.06,2.5,11-2.84,20.72,1.95a19.11,19.11,0,0,1,10.75,19.1l-46.64-1.66Z" transform="translate(-9.31 -8.25)"/><path class="cls-2" d="M165.53,349.43a33.55,33.55,0,0,0-14.33,19.64" transform="translate(-9.31 -8.25)"/><path class="cls-1" d="M179.2,166.69s53,28.7,18.11,65.75l-6.9-6s30.45-25.59-11.21-48.68Z" transform="translate(-9.31 -8.25)"/><path class="cls-3" d="M104.17,43.89l-6.6-17.81C99.46,24,113.3,9,135.6,9.77c21.38.7,34,15.26,35.9,17.56l-8.18,16.56a45.21,45.21,0,0,0-59.15,0Z" transform="translate(-9.31 -8.25)"/><rect class="cls-4" x="122.9" y="5.38" width="5.81" height="14.76"/><rect class="cls-4" x="132.21" y="13.63" width="5.81" height="14.76" transform="translate(146.81 -122.36) rotate(90)"/><path class="cls-2" d="M88.29,141.58v83.59a45.58,45.58,0,0,0,45.45,45.45h0a45.59,45.59,0,0,0,45.46-45.45V142a138,138,0,0,0-90.91-.43Z" transform="translate(-9.31 -8.25)"/><path class="cls-5" d="M133.74,32.87h0A45.59,45.59,0,0,0,88.29,78.33v63.25a138,138,0,0,1,90.91.43V78.33A45.6,45.6,0,0,0,133.74,32.87Z" transform="translate(-9.31 -8.25)"/><path d="M105.59,94.59a3.4,3.4,0,1,1-4.8-4.81Z" transform="translate(-9.31 -8.25)"/><path d="M164.72,91.48a3.4,3.4,0,1,1-4.8,4.81Z" transform="translate(-9.31 -8.25)"/><path class="cls-6" d="M126.78,101.21a5.88,5.88,0,0,1,11.66,0" transform="translate(-9.31 -8.25)"/><path class="cls-3" d="M151,213.87l-10.57,8.75c-.52-1.45-1.4-3.12-2.86-3.47-1.66-.4-2.62,1.24-5,2.26-4.91,2.13-8.42-1.64-10.86.46-2,1.68,0,4.31-2.42,7.85-1.6,2.3-3.21,2.28-3.77,4.07s.13,3.89,2.93,7l-8.82,7.31,45.89,62.95,39.1-35.17Zm-35.62,29.51,27.94-23.15Z" transform="translate(-9.31 -8.25)"/><path class="cls-5" d="M163.31,231.41l13.63.76,13.74,11.21q-1.81,7.47-3.62,14.94c.26.76,4.67,13.92,1.91,15.4-1.95,1-7.15-3.94-12.83-11.81,0,0-9.28,14.83-16,17.43s1.42-18.68,5.83-25.92c0,0-17.43,13.24-26.6,10.75a2.25,2.25,0,0,1-1.58-1.08c-1.8-3.77,12.43-16.08,28.32-22,1.39-.52,2.51-.88,3-1Z" transform="translate(-9.31 -8.25)"/><rect x="153.96" y="153.58" width="7.39" height="18.31" rx="3.63" transform="translate(-69.56 92.39) rotate(-30)"/><rect x="160.34" y="153.58" width="7.39" height="18.31" rx="3.63" transform="translate(124.35 -74.57) rotate(37.67)"/><rect class="cls-5" x="173.3" y="226.26" width="28.68" height="12.96" rx="6.36" transform="translate(185.6 -74.37) rotate(40.27)"/><rect class="cls-5" x="29.63" y="165.52" width="28.68" height="12.96" rx="6.36" transform="translate(179.18 60.65) rotate(68.84)"/><path class="cls-7" d="M59.86,60.73s9.33,6.11,8.78-8.45" transform="translate(-9.31 -8.25)"/><path class="cls-7" d="M73.53,49.73s-2.89,15.55,10,6.33" transform="translate(-9.31 -8.25)"/><path class="cls-7" d="M79.26,64.1S73.15,63,74.81,69.33" transform="translate(-9.31 -8.25)"/><path class="cls-7" d="M64.76,66.67s8.93-3.34,3.47,4.11" transform="translate(-9.31 -8.25)"/><path class="cls-1" d="M46.49,161c4.88-9,14.13-14.42,23.7-13.91,10.66.58,17,8.3,18.1,9.61V172s-13.8-33.09-38.54-2.86C48.66,166.42,47.58,163.7,46.49,161Z" transform="translate(-9.31 -8.25)"/></g><g id="Слой3_Изображение" data-name="Слой3 Изображение"><path class="cls-5" d="M34.91,166.48c-1.22-.86-8.56-5.9-15.23-3.75A7.94,7.94,0,0,0,15,165.9a7.44,7.44,0,0,0-.84,5.46,9.75,9.75,0,0,0-2.31,4.24c-.35,1.44-.05,1.81-.28,4.2-.32,3.33-1,3.88-.7,5.28.26,1.11,1.13,2.56,3.89,3.91,0,0-8.45,20,14.52,6.37,0,0-.15,17.48,9.92,13.63s1.48-16.3,1.48-16.3L41,182.17Z" transform="translate(-9.31 -8.25)"/></g></svg>