<svg id="Слой_1" data-name="Слой 1" xmlns="http://www.w3.org/2000/svg" xmlns:xlink="http://www.w3.org/1999/xlink" viewBox="0 0 634.67 455.62"><defs><style>.cls-1{fill:url(#Безымянный_градиент_6);}.cls-2{fill:#fff;}</style><linearGradient id="Безымянный_градиент_6" x1="2.5" y1="228.88" x2="637.17" y2="228.88" gradientUnits="userSpaceOnUse"><stop offset="0" stop-color="#00f260"/><stop offset="1" stop-color="#00838f"/></linearGradient></defs><title>phlogospinner3</title><path class="cls-1" d="M242.5,4.22H567.17a70,70,0,0,1,70,70h0V213.55c0,132.55-107.45,240-240,240H72.5a70,70,0,0,1-70-70h0V244.22c0-132.55,107.45-240,240-240Z" transform="translate(-2.5)"/><path class="cls-2" d="M93.63,129.48v44.87H67.39V47h49.69q14.34,0,25.23,5.24a38.72,38.72,0,0,1,16.75,14.92,41.59,41.59,0,0,1,5.86,22q0,18.72-12.81,29.52t-35.47,10.8Zm0-21.26h23.45q10.4,0,15.87-4.89t5.47-14q0-9.36-5.51-15.13t-15.22-6H93.63Z" transform="translate(-2.5)"/><path class="cls-2" d="M205.94,90Q216,78,231.22,78q30.79,0,31.23,35.77v60.62H237.17V114.43q0-8.13-3.5-12T222,98.54q-11.11,0-16.1,8.57v67.24H180.67V0h25.27Z" transform="translate(-2.5)"/><path class="cls-2" d="M336.33,174.35a28,28,0,0,1-2.54-8.48q-9.18,10.23-23.87,10.23-13.92,0-23-8a25.85,25.85,0,0,1-9.14-20.29q0-15,11.15-23.09t32.23-8.14h11.63v-5.42q0-6.55-3.36-10.5T318.8,96.73q-6.39,0-10,3.06a10.42,10.42,0,0,0-3.63,8.4H279.86A25.38,25.38,0,0,1,284.93,93a33.45,33.45,0,0,1,14.34-11,52.34,52.34,0,0,1,20.82-4q17.49,0,27.77,8.79t10.28,24.71v41q.09,13.47,3.76,20.38v1.49Zm-20.9-17.58a21.81,21.81,0,0,0,10.32-2.49,16.49,16.49,0,0,0,7-6.69V131.32h-9.42q-19,0-20.21,13.12l-.08,1.48a10.11,10.11,0,0,0,3.32,7.79q3.31,3.06,9.1,3.06Z" transform="translate(-2.5)"/><path class="cls-2" d="M430.74,103.41a69.17,69.17,0,0,0-9.1-.7q-14.34,0-18.8,9.71v61.93H377.56V79.71h23.88l.7,11.28q7.61-13,21.08-13a26.21,26.21,0,0,1,7.87,1.14Z" transform="translate(-2.5)"/><path class="cls-2" d="M466.6,79.71l.79,10.58Q477.44,78,494.59,78q18.29,0,25.11,14.43Q529.7,78,548.12,78q15.4,0,22.92,9t7.52,27v60.39H553.2V114q0-8.06-3.15-11.77t-11.11-3.71q-11.37,0-15.75,10.84l.09,65H498V114.08q0-8.22-3.23-11.89t-11-3.67q-10.77,0-15.57,8.92v66.91H442.92V79.71Z" transform="translate(-2.5)"/><path class="cls-2" d="M599.33,161.93a12.75,12.75,0,0,1,4.07-9.8,15.82,15.82,0,0,1,20.47,0,12.74,12.74,0,0,1,4.06,9.8,12.54,12.54,0,0,1-4,9.67,16.08,16.08,0,0,1-20.55,0A12.52,12.52,0,0,1,599.33,161.93Z" transform="translate(-2.5)"/><path class="cls-2" d="M90.4,305q10-12.06,25.28-12.07,30.78,0,31.22,35.78v60.62H121.62V329.4q0-8.13-3.49-12c-2.34-2.59-6.21-3.89-11.64-3.89q-11.1,0-16.09,8.57v67.27H65.12V255H90.4Z" transform="translate(-2.5)"/><path class="cls-2" d="M209.53,391.06q-20.82,0-33.89-12.77t-13.08-34v-2.44a57.31,57.31,0,0,1,5.51-25.5A40.47,40.47,0,0,1,183.68,299a43.84,43.84,0,0,1,23-6.08q19.42,0,30.57,12.25t11.2,34.65v10.33H188.19a23.49,23.49,0,0,0,7.39,14.87q6.16,5.59,15.61,5.59,14.61,0,22.83-10.58L246.44,374a38.1,38.1,0,0,1-15.39,12.55A50.67,50.67,0,0,1,209.53,391.06Zm-2.89-77.76a15.78,15.78,0,0,0-12.2,5.1q-4.68,5.1-6,14.58H223.6v-2q-.16-8.43-4.55-13T206.64,313.3Z" transform="translate(-2.5)"/><path class="cls-2" d="M289.48,389.32H264.11V255h25.37Z" transform="translate(-2.5)"/><path class="cls-2" d="M395.49,342.85q0,21.87-9.93,35T358.75,391q-14.34,0-23.18-10v74.61H310.33v-161h23.44l.87,9.27q9.18-11,24-11,17.49,0,27.2,13t9.71,35.69ZM370.21,341q0-13.2-4.68-20.38t-13.6-7.17q-11.9,0-16.36,9.1V361.3q4.64,9.38,16.54,9.36,18.11,0,18.1-29.63Z" transform="translate(-2.5)"/><path class="cls-2" d="M454.71,391.06q-20.82,0-33.9-12.77t-13.08-34v-2.44a57.19,57.19,0,0,1,5.52-25.5A40.47,40.47,0,0,1,428.86,299a43.84,43.84,0,0,1,23-6.08q19.41,0,30.57,12.25t11.2,34.65v10.33h-60.3a23.49,23.49,0,0,0,7.39,14.87q6.18,5.59,15.62,5.59,14.61,0,22.83-10.58L491.59,374a37.9,37.9,0,0,1-15.4,12.55A50.49,50.49,0,0,1,454.71,391.06Zm-2.89-77.76a15.78,15.78,0,0,0-12.2,5.1q-4.68,5.1-6,14.58h35.16v-2q-.18-8.43-4.55-13T451.82,313.3Z" transform="translate(-2.5)"/><path class="cls-2" d="M561.16,318.38a67.49,67.49,0,0,0-9.1-.7q-14.35,0-18.81,9.71v61.93H508V294.67h23.88l.7,11.29q7.62-13,21.08-13a26.6,26.6,0,0,1,7.88,1.14Z" transform="translate(-2.5)"/></svg>