<svg id="Слой_6" data-name="Слой 6" xmlns="http://www.w3.org/2000/svg" viewBox="0 0 205.41 363.56"><defs><style>.cls-1,.cls-2,.cls-3,.cls-5,.cls-6,.cls-7{stroke:#000;stroke-miterlimit:10;stroke-width:3px;}.cls-2,.cls-4{fill:#f33;}.cls-3{fill:#06f;}.cls-5{fill:none;}.cls-6{fill:#fff;}.cls-7{fill:#fcfcfc;}</style></defs><title>обычная</title><polyline class="cls-1" points="106.77 256.8 112.1 315.68 116.18 315.68 114.36 259.34 106.77 256.8"/><polyline class="cls-1" points="150.62 256.8 145.29 315.98 141.21 315.98 143.02 259.36 150.62 256.8"/><path class="cls-2" d="M130.79,325.18s-16.3,1.51-25.36,6.79a30.09,30.09,0,0,0,1.16,3.55c3.88,9.85,11.3,13.26,10.39,15.4-1.06,2.5-11-2.84-20.72,1.95A19.11,19.11,0,0,0,85.51,372l46.64-1.66Z" transform="translate(-7.3 -9.97)"/><path class="cls-2" d="M104.44,351.15a33.55,33.55,0,0,1,14.33,19.64" transform="translate(-7.3 -9.97)"/><path class="cls-2" d="M141.19,325.18s16.3,1.51,25.36,6.79a31.6,31.6,0,0,1-1.15,3.55c-3.89,9.85-11.31,13.26-10.4,15.4,1.07,2.5,11-2.84,20.72,1.95A19.07,19.07,0,0,1,186.47,372l-46.64-1.66Z" transform="translate(-7.3 -9.97)"/><path class="cls-2" d="M167.54,351.15a33.61,33.61,0,0,0-9.52,9.2,34,34,0,0,0-4.81,10.44" transform="translate(-7.3 -9.97)"/><path class="cls-1" d="M181.21,168.41s53,28.7,18.11,65.75l-6.9-6s30.46-25.59-11.21-48.68Z" transform="translate(-7.3 -9.97)"/><path class="cls-3" d="M106.18,45.61,99.59,27.8c1.88-2.11,15.72-17,38-16.31,21.39.7,34,15.26,35.9,17.56l-8.17,16.56a45.22,45.22,0,0,0-59.16,0Z" transform="translate(-7.3 -9.97)"/><rect class="cls-4" x="126.93" y="5.38" width="5.81" height="14.76"/><rect class="cls-4" x="134.23" y="15.35" width="5.81" height="14.76" transform="translate(152.56 -124.38) rotate(90)"/><path class="cls-5" d="M194.2,8" transform="translate(-7.3 -9.97)"/><path class="cls-5" d="M52.75,215.44" transform="translate(-7.3 -9.97)"/><polygon class="cls-1" points="52.7 212.51 45.45 205.47 83 151.28 83 172.86 52.7 212.51"/><path class="cls-2" d="M90.3,143.3v83.59a45.6,45.6,0,0,0,45.46,45.46h0a45.59,45.59,0,0,0,45.45-45.46V143.73a138,138,0,0,0-90.91-.43Z" transform="translate(-7.3 -9.97)"/><path class="cls-6" d="M135.76,34.59h0A45.6,45.6,0,0,0,90.3,80.05V143.3a138,138,0,0,1,90.91.43V80.05A45.59,45.59,0,0,0,135.76,34.59Z" transform="translate(-7.3 -9.97)"/><circle cx="96.7" cy="86.44" r="3.4"/><circle cx="158.24" cy="88.14" r="3.4"/><path class="cls-5" d="M128.79,93.8a5.88,5.88,0,0,0,11.67,0" transform="translate(-7.3 -9.97)"/><path class="cls-3" d="M153,215.59l-10.57,8.75c-.53-1.44-1.4-3.12-2.87-3.47-1.66-.4-2.61,1.24-5,2.26-4.91,2.13-8.42-1.64-10.87.46-2,1.68,0,4.31-2.42,7.85-1.6,2.3-3.2,2.28-3.77,4.07s.13,3.9,2.94,7l-8.83,7.31,45.89,63,39.1-35.17ZM117.36,245.1l28-23.15Z" transform="translate(-7.3 -9.97)"/><path class="cls-6" d="M165.32,233.13l13.63.76,13.74,11.21q-1.8,7.47-3.61,14.94c.26.76,4.67,13.92,1.91,15.4-2,1-7.16-3.94-12.83-11.81,0,0-9.29,14.83-16,17.43s1.41-18.68,5.83-25.92c0,0-17.44,13.24-26.61,10.75a2.2,2.2,0,0,1-1.57-1.08c-1.81-3.77,12.42-16.08,28.31-22,1.39-.51,2.51-.88,3-1Z" transform="translate(-7.3 -9.97)"/><rect x="155.98" y="155.3" width="7.39" height="18.31" rx="3.63" transform="translate(-68.13 91.9) rotate(-30)"/><rect x="162.36" y="155.3" width="7.39" height="18.31" rx="3.63" transform="translate(127.83 -77.17) rotate(37.67)"/><rect class="cls-6" x="38.41" y="218.44" width="28.68" height="12.96" rx="6.36" transform="translate(150.59 9.24) rotate(40.27)"/><rect class="cls-7" x="174.8" y="227.55" width="28.68" height="12.96" rx="6.36" transform="translate(188.8 -76.76) rotate(40.27)"/><path class="cls-6" d="M60.9,257.4c-1.44-5-6.6-5.63-6.71-9.79-.07-2.41,1.65-3.06,1.86-6.63a12.66,12.66,0,0,0-1-5.68l-11.6-9.79q-27.31-.47-27.94,3.41-.48,3,14.92,8.55c4.8,2.15,6,2.87,5.89,3.06s-3.61-1.49-7.47-.79c-2.69.48-4.47,2-7.22,4.58-9.27,8.74-13.9,13.11-12.6,16.59a4.36,4.36,0,0,0,2.1,2.29c7,3.2,22-17.26,24-15.76.95.72-2.54,5.4-4.45,13.81-1,4.37-2.4,13.38,0,14.38,2.16.9,7.42-4.72,10.19-10.64,2.68-5.76,1.86-9.32,3.85-10,4-1.3,10.06,12.5,14,11.21C60.78,265.56,61.92,260.93,60.9,257.4Z" transform="translate(-7.3 -9.97)"/></svg>