<svg xmlns="http://www.w3.org/2000/svg" viewBox="0 0 198.61 363.56"><defs><style>.cls-1,.cls-10,.cls-2,.cls-3,.cls-5,.cls-6,.cls-7,.cls-8,.cls-9{stroke:#000;stroke-miterlimit:10;}.cls-1,.cls-2,.cls-3,.cls-5,.cls-6,.cls-7{stroke-width:3px;}.cls-2,.cls-4{fill:#f33;}.cls-3,.cls-9{fill:#06f;}.cls-11,.cls-5,.cls-8{fill:none;}.cls-10,.cls-6{fill:#fff;}.cls-7{fill:#fcfcfc;}.cls-10,.cls-8,.cls-9{stroke-width:2px;}</style></defs><title>ставлю лайк в маске</title><g id="Слой1_Изображение" data-name="Слой1 Изображение"><polyline class="cls-1" points="99.97 256.8 105.31 315.68 109.38 315.68 107.57 259.34 99.97 256.8"/><polyline class="cls-1" points="143.83 256.8 138.49 315.98 134.42 315.98 136.23 259.36 143.83 256.8"/><path class="cls-2" d="M127.4,325.18S111.1,326.69,102,332a29.63,29.63,0,0,0,1.15,3.55c3.89,9.85,11.3,13.26,10.4,15.4-1.07,2.5-11-2.84-20.73,1.95A19.11,19.11,0,0,0,82.11,372l46.65-1.66Z" transform="translate(-10.69 -9.97)"/><path class="cls-2" d="M101,351.15a33.44,33.44,0,0,1,14.33,19.64" transform="translate(-10.69 -9.97)"/><path class="cls-2" d="M137.79,325.18s16.31,1.51,25.36,6.79a27.89,27.89,0,0,1-1.15,3.55c-3.88,9.85-11.3,13.26-10.4,15.4,1.07,2.5,11-2.84,20.73,1.95A19.11,19.11,0,0,1,183.08,372l-46.65-1.66Z" transform="translate(-10.69 -9.97)"/><path class="cls-2" d="M164.15,351.15a33.44,33.44,0,0,0-14.33,19.64" transform="translate(-10.69 -9.97)"/><path class="cls-1" d="M177.82,168.41s53,28.7,18.11,65.75l-6.9-6s30.45-25.59-11.21-48.68Z" transform="translate(-10.69 -9.97)"/><path class="cls-3" d="M102.78,45.61,96.19,27.8c1.89-2.11,15.73-17,38-16.31,21.38.7,34,15.26,35.9,17.56l-8.18,16.56a45.22,45.22,0,0,0-59.16,0Z" transform="translate(-10.69 -9.97)"/><rect class="cls-4" x="120.14" y="5.38" width="5.81" height="14.76"/><rect class="cls-4" x="130.83" y="15.35" width="5.81" height="14.76" transform="translate(145.77 -120.98) rotate(90)"/><path class="cls-5" d="M190.8,8" transform="translate(-10.69 -9.97)"/><path class="cls-5" d="M49.36,215.44" transform="translate(-10.69 -9.97)"/><path class="cls-2" d="M86.91,143.3v83.59a45.59,45.59,0,0,0,45.45,45.46h0a45.6,45.6,0,0,0,45.46-45.46V143.73a138,138,0,0,0-90.91-.43Z" transform="translate(-10.69 -9.97)"/><path class="cls-6" d="M132.36,34.59h0A45.59,45.59,0,0,0,86.91,80.05V143.3a138,138,0,0,1,90.91.43V80.05A45.6,45.6,0,0,0,132.36,34.59Z" transform="translate(-10.69 -9.97)"/><path d="M105,90.41H98.21a3.4,3.4,0,1,1,6.79,0Z" transform="translate(-10.69 -9.97)"/><path d="M167.53,91.11h-6.79a3.4,3.4,0,1,1,6.79,0Z" transform="translate(-10.69 -9.97)"/><path class="cls-5" d="M125.4,93.8a5.88,5.88,0,0,0,11.66,0" transform="translate(-10.69 -9.97)"/><path class="cls-3" d="M149.59,215.59,139,224.34c-.52-1.44-1.4-3.12-2.87-3.47-1.65-.4-2.61,1.24-5,2.26-4.91,2.13-8.42-1.64-10.87.46-2,1.68,0,4.31-2.41,7.85-1.6,2.3-3.21,2.28-3.78,4.07s.13,3.9,2.94,7l-8.82,7.31,45.89,63,39.09-35.17ZM114,245.1,141.91,222Z" transform="translate(-10.69 -9.97)"/><path class="cls-6" d="M161.93,233.13l13.63.76L189.3,245.1q-1.81,7.47-3.62,14.94c.26.76,4.67,13.92,1.91,15.4-2,1-7.15-3.94-12.83-11.81,0,0-9.28,14.83-16,17.43s1.42-18.68,5.83-25.92c0,0-17.43,13.24-26.6,10.75a2.25,2.25,0,0,1-1.58-1.08c-1.81-3.77,12.42-16.08,28.32-22,1.39-.51,2.51-.88,3-1Z" transform="translate(-10.69 -9.97)"/><rect x="152.58" y="155.3" width="7.39" height="18.31" rx="3.63" transform="translate(-71.98 90.2) rotate(-30)"/><rect x="158.96" y="155.3" width="7.39" height="18.31" rx="3.63" transform="translate(123.73 -75.09) rotate(37.67)"/><rect class="cls-6" x="28.2" y="157.97" width="28.68" height="12.96" rx="6.36" transform="matrix(-0.65, 0.76, -0.76, -0.65, 184.82, 228.33)"/><rect class="cls-7" x="171.4" y="227.55" width="28.68" height="12.96" rx="6.36" transform="translate(184.6 -74.57) rotate(40.27)"/><path class="cls-1" d="M42.33,174.73c17.35,36.44,44.58,10.6,44.58,10.6V172.06c-25.18,31.85-39.24-3.65-39.24-3.65Z" transform="translate(-10.69 -9.97)"/><path class="cls-6" d="M42.76,154.18S40.53,149,50,130.28a7.13,7.13,0,0,0-3.64-3.56c-3.38-1.29-6.83,1.21-8.66,2.53a16.54,16.54,0,0,0-5.62,7.41,14.72,14.72,0,0,0-8-4.89c-1.75-.35-4.08-.88-5.75.59a5.7,5.7,0,0,0-1.66,5.78c.65,1.91,2.46,2.63,2.14,3.4s-1.66.23-3.24,1.1a5.89,5.89,0,0,0-2.34,2.64c-2.06,3.85-.41,8.83-.09,9.75,0,0-3.85,11.66,7.41,13.38s10.75,0,10.75,0Z" transform="translate(-10.69 -9.97)"/><path class="cls-5" d="M32.09,136.66c4.76,5.17,7.28,10.06,5.85,12-1.6,2.13-7.56.3-10.11-.73a23.88,23.88,0,0,1-11.18-9.77" transform="translate(-10.69 -9.97)"/><path class="cls-5" d="M12.32,151.65c8.38,6.82,15.47,10.19,17.89,8.1s-.06-8.43-1.3-11.43" transform="translate(-10.69 -9.97)"/><path class="cls-5" d="M62.33,150.86" transform="translate(-10.69 -9.97)"/></g><g id="Слой11_Изображение" data-name="Слой11 Изображение"><path class="cls-8" d="M178.67,120.69a146.78,146.78,0,0,0-91.11,0V101.86a155.17,155.17,0,0,1,91.11,0Z" transform="translate(-10.69 -9.97)"/><path class="cls-9" d="M156.84,116.8a160.78,160.78,0,0,1-25.28,1.78,161.83,161.83,0,0,1-22.67-1.78c-4.52-5.34-6.14-12-3.89-17.33a13.39,13.39,0,0,1,3.89-5.1,100.5,100.5,0,0,1,48,0,14.79,14.79,0,0,1,3.72,5.66C163.51,108.28,157.41,116.09,156.84,116.8Z" transform="translate(-10.69 -9.97)"/><path class="cls-8" d="M105,101.47s28.34-7.33,55.56.56" transform="translate(-10.69 -9.97)"/><path class="cls-10" d="M105.47,111.33" transform="translate(-10.69 -9.97)"/><path class="cls-8" d="M104.35,109.86s28.31-6.06,56.54.67" transform="translate(-10.69 -9.97)"/></g><g id="Слой_9" data-name="Слой 9"><path class="cls-11" d="M86.91,101.86" transform="translate(-10.69 -9.97)"/></g></svg>