<svg id="Слой1_Изображение" data-name="Слой1 Изображение" xmlns="http://www.w3.org/2000/svg" viewBox="0 0 196.62 363.56"><defs><style>.cls-1,.cls-2,.cls-3,.cls-5,.cls-6,.cls-7,.cls-8{stroke:#000;stroke-miterlimit:10;}.cls-1,.cls-2,.cls-3,.cls-5,.cls-6,.cls-7{stroke-width:3px;}.cls-2,.cls-4{fill:#f33;}.cls-3{fill:#06f;}.cls-5{fill:#fff;}.cls-6{fill:none;}.cls-7{fill:#fcfcfc;}.cls-8{fill:#fc6;stroke-width:2px;}</style></defs><title>подмигивающая</title><polyline class="cls-1" points="93.09 256.8 98.42 315.68 102.5 315.68 100.69 259.34 93.09 256.8"/><polyline class="cls-1" points="136.94 256.8 131.61 315.98 127.53 315.98 129.34 259.36 136.94 256.8"/><path class="cls-2" d="M121.26,323.46S105,325,95.9,330.25a31.6,31.6,0,0,0,1.15,3.55c3.89,9.85,11.31,13.26,10.4,15.4-1.06,2.5-11-2.84-20.72,1.95A19.07,19.07,0,0,0,76,370.25l46.64-1.66Z" transform="translate(-11.44 -8.25)"/><path class="cls-2" d="M94.91,349.43a33.55,33.55,0,0,1,14.33,19.64" transform="translate(-11.44 -8.25)"/><path class="cls-2" d="M131.66,323.46S148,325,157,330.25a30.09,30.09,0,0,1-1.16,3.55c-3.88,9.85-11.3,13.26-10.39,15.4,1.06,2.5,11-2.84,20.72,1.95a19.11,19.11,0,0,1,10.75,19.1l-46.64-1.66Z" transform="translate(-11.44 -8.25)"/><path class="cls-2" d="M158,349.43a33.55,33.55,0,0,0-14.33,19.64" transform="translate(-11.44 -8.25)"/><path class="cls-1" d="M171.68,166.69s53,28.7,18.11,65.75l-6.9-6s30.45-25.59-11.21-48.68Z" transform="translate(-11.44 -8.25)"/><path class="cls-3" d="M96.65,43.89l-6.6-17.81c1.89-2.11,15.73-17,38-16.31,21.39.7,34,15.26,35.9,17.56L155.8,43.89a45.21,45.21,0,0,0-59.15,0Z" transform="translate(-11.44 -8.25)"/><rect class="cls-4" x="113.25" y="5.38" width="5.81" height="14.76"/><rect class="cls-4" x="124.7" y="13.63" width="5.81" height="14.76" transform="translate(137.16 -114.85) rotate(90)"/><path class="cls-2" d="M80.77,141.58v83.59a45.58,45.58,0,0,0,45.45,45.45h0a45.58,45.58,0,0,0,45.46-45.45V142a138,138,0,0,0-90.91-.43Z" transform="translate(-11.44 -8.25)"/><path class="cls-5" d="M126.22,32.87h0A45.59,45.59,0,0,0,80.77,78.33v63.25a138,138,0,0,1,90.91.43V78.33A45.59,45.59,0,0,0,126.22,32.87Z" transform="translate(-11.44 -8.25)"/><circle cx="83.03" cy="86.44" r="3.4"/><path class="cls-6" d="M119.26,92.08a5.88,5.88,0,0,0,11.66,0" transform="translate(-11.44 -8.25)"/><path class="cls-3" d="M143.45,213.87l-10.56,8.75c-.53-1.45-1.41-3.12-2.87-3.47-1.66-.4-2.61,1.24-5,2.26-4.92,2.13-8.43-1.64-10.87.46-2,1.68,0,4.31-2.42,7.85-1.6,2.3-3.21,2.28-3.77,4.07s.13,3.89,2.94,7l-8.83,7.31L148,311.08l39.1-35.17Zm-35.62,29.51,27.94-23.15Z" transform="translate(-11.44 -8.25)"/><path class="cls-7" d="M155.79,231.41l13.63.76,13.74,11.21q-1.82,7.47-3.62,14.94c.26.76,4.67,13.92,1.91,15.4-1.95,1-7.15-3.94-12.83-11.81,0,0-9.28,14.83-16,17.43s1.42-18.68,5.83-25.92c0,0-17.43,13.24-26.6,10.75a2.25,2.25,0,0,1-1.58-1.08c-1.8-3.77,12.43-16.08,28.32-22,1.39-.52,2.51-.88,3-1Z" transform="translate(-11.44 -8.25)"/><rect x="146.45" y="153.58" width="7.39" height="18.31" rx="3.63" transform="matrix(0.87, -0.5, 0.5, 0.87, -72.69, 88.63)"/><rect x="152.83" y="153.58" width="7.39" height="18.31" rx="3.63" transform="translate(120.65 -69.98) rotate(37.67)"/><rect class="cls-7" x="165.27" y="225.83" width="28.68" height="12.96" rx="6.36" transform="translate(181.29 -69.29) rotate(40.27)"/><rect class="cls-7" x="20.95" y="156.89" width="28.68" height="12.96" rx="6.36" transform="translate(105.1 301.18) rotate(163.1)"/><path class="cls-6" d="M178,101.63s7.11-.57,9.85,2.76" transform="translate(-11.44 -8.25)"/><path class="cls-8" d="M199,106.49l3.62-1.91a1.08,1.08,0,0,1,1.56,1.13l-.7,4a1.07,1.07,0,0,0,.31,1l2.93,2.86a1.06,1.06,0,0,1-.59,1.82l-4,.59a1.08,1.08,0,0,0-.81.59l-1.81,3.67a1.07,1.07,0,0,1-1.92,0l-1.81-3.67a1.08,1.08,0,0,0-.81-.59l-4.05-.59a1.06,1.06,0,0,1-.59-1.82l2.93-2.86a1.07,1.07,0,0,0,.31-1l-.7-4a1.07,1.07,0,0,1,1.56-1.13l3.62,1.91A1.1,1.1,0,0,0,199,106.49Z" transform="translate(-11.44 -8.25)"/><path class="cls-1" d="M79,189l.67-13.46S56.05,210.53,39,169l-7.81,2.48S46.65,216.38,79,189" transform="translate(-11.44 -8.25)"/><path class="cls-7" d="M44.68,155.13s22.44-21.67,13.66-23.89-15.33,8-15.33,8,4.52-31.78-4.19-32.78-6.14,27.63-6.14,27.63-8.56-19.74-17.11-20.29,6.55,24.55,6.55,24.55-13.67,2.56-7.22,15.22,16.27,4,16.27,4Z" transform="translate(-11.44 -8.25)"/><path class="cls-7" d="M22.12,138.35a18.5,18.5,0,0,1,6.9,6.82,18.8,18.8,0,0,1,2.15,12.36" transform="translate(-11.44 -8.25)"/><polyline class="cls-6" points="146.72 81.82 141.56 86.79 146.72 91.07"/></svg>