<svg id="Слой1_Изображение" data-name="Слой1 Изображение" xmlns="http://www.w3.org/2000/svg" viewBox="0 0 201.66 363.56"><defs><style>.cls-1,.cls-2,.cls-3,.cls-5,.cls-6{stroke:#000;stroke-miterlimit:10;stroke-width:3px;}.cls-2,.cls-4{fill:#f33;}.cls-3{fill:#06f;}.cls-5{fill:none;}.cls-6{fill:#fcfcfc;}</style></defs><title>приветствие</title><polyline class="cls-1" points="103.02 256.8 108.35 315.68 112.43 315.68 110.61 259.34 103.02 256.8"/><polyline class="cls-1" points="146.87 256.8 141.53 315.98 137.46 315.98 139.27 259.36 146.87 256.8"/><path class="cls-2" d="M128.92,325.18s-16.3,1.51-25.36,6.79a31.6,31.6,0,0,0,1.15,3.55c3.89,9.85,11.3,13.26,10.4,15.4-1.07,2.5-11-2.84-20.73,1.95A19.11,19.11,0,0,0,83.63,372l46.65-1.66Z" transform="translate(-9.17 -9.97)"/><path class="cls-2" d="M102.57,351.15a33.47,33.47,0,0,1,14.32,19.64" transform="translate(-9.17 -9.97)"/><path class="cls-2" d="M139.31,325.18s16.31,1.51,25.36,6.79a27.89,27.89,0,0,1-1.15,3.55c-3.88,9.85-11.3,13.26-10.39,15.4,1.06,2.5,11-2.84,20.72,1.95A19.11,19.11,0,0,1,184.6,372L138,370.31Z" transform="translate(-9.17 -9.97)"/><path class="cls-2" d="M165.67,351.15a33.44,33.44,0,0,0-14.33,19.64" transform="translate(-9.17 -9.97)"/><path class="cls-1" d="M179.34,168.41s53,28.7,18.11,65.75l-6.9-6S221,202.6,179.34,179.51Z" transform="translate(-9.17 -9.97)"/><path class="cls-3" d="M104.3,45.61,97.71,27.8c1.89-2.11,15.73-17,38-16.31,21.38.7,34,15.26,35.9,17.56l-8.18,16.56a45.22,45.22,0,0,0-59.16,0Z" transform="translate(-9.17 -9.97)"/><rect class="cls-4" x="123.18" y="5.38" width="5.81" height="14.76"/><rect class="cls-4" x="132.35" y="15.35" width="5.81" height="14.76" transform="translate(148.81 -122.5) rotate(90)"/><path class="cls-5" d="M192.32,8" transform="translate(-9.17 -9.97)"/><path class="cls-2" d="M88.43,143.3v83.59a45.59,45.59,0,0,0,45.45,45.46h0a45.6,45.6,0,0,0,45.46-45.46V143.73a138,138,0,0,0-90.91-.43Z" transform="translate(-9.17 -9.97)"/><path class="cls-6" d="M133.88,34.59h0A45.59,45.59,0,0,0,88.43,80.05V143.3a138,138,0,0,1,90.91.43V80.05A45.6,45.6,0,0,0,133.88,34.59Z" transform="translate(-9.17 -9.97)"/><circle cx="92.95" cy="86.44" r="3.4"/><circle cx="154.49" cy="88.14" r="3.4"/><path class="cls-5" d="M126.92,93.8a5.88,5.88,0,0,0,11.66,0" transform="translate(-9.17 -9.97)"/><path class="cls-3" d="M151.11,215.59l-10.57,8.75c-.52-1.44-1.4-3.12-2.86-3.47-1.66-.4-2.62,1.24-5,2.26-4.91,2.13-8.42-1.64-10.87.46-1.95,1.68.05,4.31-2.41,7.85-1.6,2.3-3.21,2.28-3.77,4.07s.12,3.9,2.93,7l-8.82,7.31,45.89,63,39.1-35.17ZM115.49,245.1,143.43,222Z" transform="translate(-9.17 -9.97)"/><path class="cls-6" d="M163.45,233.13l13.63.76,13.74,11.21Q189,252.57,187.2,260c.26.76,4.67,13.92,1.91,15.4-2,1-7.15-3.94-12.83-11.81,0,0-9.28,14.83-16,17.43s1.42-18.68,5.83-25.92c0,0-17.43,13.24-26.6,10.75a2.25,2.25,0,0,1-1.58-1.08c-1.8-3.77,12.42-16.08,28.32-22,1.39-.51,2.51-.88,3-1Z" transform="translate(-9.17 -9.97)"/><rect x="154.1" y="155.3" width="7.39" height="18.31" rx="3.63" transform="translate(-70.26 90.96) rotate(-30)"/><rect x="160.48" y="155.3" width="7.39" height="18.31" rx="3.63" transform="translate(125.57 -76.02) rotate(37.67)"/><rect class="cls-6" x="172.93" y="227.55" width="28.68" height="12.96" rx="6.36" transform="matrix(0.76, 0.65, -0.65, 0.76, 186.48, -75.55)"/><rect class="cls-6" x="31.82" y="153.67" width="28.68" height="12.96" rx="6.36" transform="translate(119.79 294.82) rotate(166.28)"/><path class="cls-1" d="M88.43,170.47S68,208,48.15,166.33l-8.21,2s12.65,40.57,48.49,19Z" transform="translate(-9.17 -9.97)"/><path class="cls-6" d="M51.54,151.58c9.19-8.65,18.4-18.51,16.19-22-.77-1.22-2.77-1.33-3.61-1.37-7.09-.39-11.68,9-13.63,8.07s2-9.09,1.11-21.55c-.59-8-2.55-10-4.08-10.67a5.17,5.17,0,0,0-4.74.37c-2.15,1.36-2.74,4.33-2.89,12.07-.17,9.44.53,14.55-.29,14.74-1.08.25-2.6-8.28-9.88-15.92-1.85-1.93-4.95-5.19-6.79-4.37-2.34,1-2.41,8.57.37,14.52,2.62,5.61,6.94,8,6.15,9.4s-4.67-.94-10.89.08c-1.18.19-7.35,1.2-7.85,4-.38,2.15,2.3,4.75,4.81,5.75,1.9.75,2.69.2,6,.59a22.09,22.09,0,0,1,6.86,1.78c4,2,5.85,6.43,6.66,9.22Z" transform="translate(-9.17 -9.97)"/></svg>